<?xml version="1.0" encoding="UTF-8"?>
  <svg version="1.1" viewBox="0 0 2048 639" width="1280" height="1280" xmlns="http://www.w3.org/2000/svg">
        <path transform="translate(355,108)" d="m0 0h35l10 1 4 2 19 2 7 3 12 3 16 6 13 5 16 9 18 12 14 11 16 16 8 7 10 12 13 19 19 38 8 25 5 26v6l2 7v35l-1 12-2 5-2 20-2 3-4 15-6 17-6 13-8 15-15 22-8 9-7 8-8 8-8 7-5 5h2l-2 4-10 2-6 4-3 7-9 4-1 1-10 2-5 3-15 8-5 4-10 2-5 3-8 1-2 3h-2l-2-3h-6l-3 3-7 2-1 2-4-1-3-1-3 3h-10l-2-3-3-1-2 4h-14l-3-3-3 1-1 2h-12l-6-2-2 2-9-1-2-2-11-2-2-2-15-2-4-1-6-4-1-2-6-1-9-1-3-3-6-2-11-6-6-5-6-3-6-7-5-1-12-10-7-8-8-9-14-16-9-12-6-10-13-25-4-8-7-19-5-23-2-9-1-10-1-2v-47l3-8 2-19 3-7 3-12 11-28 9-17 13-19 9-11 9-10 22-22 18-13 10-6 34-17 25-8 25-5h6z" fill="#4E9560"/>
        <path transform="translate(253,265)" d="m0 0h240l1 1v137l-1 12-2 4h-237l-4-2-1-10v-125l1-15z" fill="#000000"/>
        <path transform="translate(1425,213)" d="m0 0h91l2 1v2l18 1 20 10 12 12 5 8 5 15v15l-3 11-3 5v5l-5 3-2 5-10 7-10 6-6 4 3 2 8 4 5-1 16 12 10 14 4 10 2 7v26l-6 14-7 11-7 7-13 8-15 6-12 2-2 2h-99l-1-1zm32 25-1 1v67l2 4 6 3h50l12-6 17-17 1-5-1-22-6-12-7-7-2-1-14-1-2-3zm0 100-1 1v80h57l17-3 10-6 10-10 2-4 1-12 1-6-2-14-6-9-5-6-9-6-6-3-1-1-21-1z" fill="#509661"/>
        <path transform="translate(811,214)" d="m0 0 6 2 21 1 15 3 14 5 20 10 10 9 13 13 8 13 4 9 1 11 3 4v18l4 2v41l-3 4-4 15-11 21-8 10-9 10-5 6-10 6-9 7-9 2-8 7-13 1-4 3-16 1h-4l2 8 7 4 14 1 11 4 10 3 13 5 18 6 8 2h22l5-3 4 1-1 6-8 7-15 10-5 2h-7l-39-9-4-2-6-5-8-1-7-3-26-7-15-3-4 3-9 3-9 6h-3v-10l3-3 16-10 10-7 2-4-13-1-21-5-5-1-21-11-8-7-10-7-7-8-7-11-8-13-3-10-2-5-4-13-1-16v-22l2-16 4-15 14-28 23-23 10-7 16-8 11-4 15-4 25-1 4-1zm-26 16-7 2-19 8-9 7-11 11-8 11-3 6-6 21-2 21-2 3 3 2v19l1 14 2 2 3 12 2 3 2 9 8 16 8 11 2 4 8 4 6 5 24 12 3 2 13 1 2 2h4l1-2h2l2 3h6l3-3 8-1h7l10-4 13-7 12-12 7-9 8-16 6-20 1-2v-59l-3-7-5-15-3-7-12-21-6-4-8-8-14-6-5-2-6-4-10-2z" fill="#73AA56"/>
        <path transform="translate(304,452)" d="m0 0h176l5 2 1 1 1 42v34l6-3h2v-16l1-26 10 5 11 10 2 6h2v2l-3 3h2l-2 4-10 2-6 4-3 7-9 4-1 1-10 2-5 3-15 8-5 4-10 2-5 3-8 1-2 3h-2l-2-3h-6l-3 3-7 2-1 2-4-1-3-2-1-3v-69h-143l-1-25 1-9 2-2z" fill="#000000"/>
        <path transform="translate(1682,287)" d="m0 0h30l17 6 14 8 9 7 8 7 11 19 7 16v37l-1 2h-2l-1 12-11 17-7 9-10 8-10 6-12 6-9 2-3 2-9 1-4-1-3 1h-11l-17-4-21-10-10-9v-2l-4-2-8-10-8-16-2-8-2-3-1-27 1-11 5-15 10-15 7-8 7-7 15-10 9-4zm10 26-7 3-10 2-10 5-9 8-6 9-3 8-4 19 1 14 2 2 3 12 5 9 9 9 8 6 3 2 13 2 7 1 17-2 7-3 11-7 5-4 9-17 4-17v-9l-3-6-1-13-6-12-9-9-8-6-14-5-8 1-3-2z" fill="#529763"/>
        <path transform="translate(988,292)" d="m0 0h6l1 1v29l-1 5-1 13-1 4v63l3 3 2 10 4 5 8 4 9 2 6 2 3-2 15-2 5-3 5-2 7-8 5-7 4-9v-83l-9-3-20-1v-5l3-3 11-2 7-1 2-2 14-2 9-3 7-3h6l2 7v10l-1 5h-2l1 2v30l-1 2-1 53v24l3 7 4 5 3 1 15 1 2 2v6l-1 1-52-1-1-1v-25l-9 1-5 3h-2l1 4 2 2v3l-8 7-12 6-9 2-2 2-13 1h-18l-4-3-7-3-12-12-6-12-1-104-4-4-11-2-6-5 2-3 13-2 21-6z" fill="#72AA55"/>
        <path transform="translate(1821,247)" d="m0 0h31v44h41v25l-1 1h-40l1 91 3 7 4 5 7 3 13-1 15-2v24l-4 3-11 4-9 1h-14l-8-2-12-4-8-8-7-14-1-12v-95h-34v-25l1-1 33-1z" fill="#539863"/>
        <path transform="translate(257,498)" d="m0 0 133 1 1 1v62h9v2l-2 1h-10l-2-3-3-1-2 4h-14l-3-3-3 1-1 2h-12l-6-2-2 2-9-1-2-2-11-2-2-2-15-2-4-1-6-4-1-2-6-1-9-1-3-3-6-2-11-6-3-4h4z" fill="#000000"/>
        <path transform="translate(1277,207)" d="m0 0 2 1v225l8 4 17 2 1 2v6l-1 1h-82l-1-5 1-4 20-1 4-4 1-2 1-27 1-5-1-4 1-2v-6l-1-1v-8l1-2v-111l-1-1v-35h-23l-3-3v-7l2-2 24-3 17-5z" fill="#77AC5A"/>
        <path transform="translate(1366,206)" d="m0 0h3v33l-1 1-1 42v123l1 20 3 11 21 3 2 2v7l-81-1v-8l22-1 3-12v-195l-25-1v-12l21-2 20-5z" fill="#72A954"/>
        <path transform="translate(1183,292)" d="m0 0h6l2 3v13l-2 4 2 9-1 2-1 24-1 1v60l3 21 2 5 5 2 17 3 1 2v7h-81l-1-1v-7l1-1 16-2 7-5 1-6 1-54v-28l-1-22-3-4-1-3h-21v-10l1-1 17-1 1-3 15-2 3-2 10-2z" fill="#72A954"/>
        <path transform="translate(447,139)" d="m0 0h6l1 2-12 34-3 1h-3l2 5v7l-6 7-9 2 6 3-1 4-5 8-2 2h-11l-1 2 5 2-1 7-7 11-5 4h-7v2l5 2-2 5-7 8-6 4h-10l1-7 4-10 6-16 11-23 7-11 8-14 6-7 5-9-3 1-5 8-8 9-8 15-6 9-11 22-8 22-3 9h-4l-3-8-2-6 2-11 5-1-4-1 1-12 2-10h4l5 1-6-6 2-6 9-17 5-1 4 2-2-5-1-5 8-10 11-11 7-1 3 1 2-7 1-1 20-4z" fill="#000000"/>
        <path transform="translate(1092,292)" d="m0 0h6l2 7v10l-1 5h-2l1 2v30l-1 2-1 53v24l3 7 4 5 3 1 15 1 2 2v6l-1 1-52-1-1-1v-25l-9 1-5 3-3-1 7-8 5-7 4-9v-83l-9-3-20-1v-5l3-3 11-2 7-1 2-2 14-2 9-3z" fill="#72A954"/>
        <path transform="translate(439,489)" d="m0 0h8l8 4 7 7 3 7v11l-4 8-8 6-7 3h-7l-10-5-6-7-3-9v-9l4-8 8-6z" fill="#2A7C40"/>
        <path transform="translate(432,322)" d="m0 0h8l9 5 6 8 2 9-3 9-5 6-7 3h-11l-8-4-4-5-2-5v-13l4-7 5-4z" fill="#4D945F"/>
        <path transform="translate(301,322)" d="m0 0h11l9 6 6 10v9l-4 8-6 5-6 3-8-1-8-4-6-7-2-5v-9l4-8 6-5z" fill="#4D945F"/>
        <path transform="translate(1170,221)" d="m0 0h9l6 3 5 6 1 2v11l-7 11-3 2h-15l-4-2-6-11v-10l4-7 5-4z" fill="#72AA55"/>
        <path transform="translate(274,509)" d="m0 0h91l8 1 2 2-1 5-4 2-95 1-2-2v-8z" fill="#52975D"/>
        <path transform="translate(399,429)" d="m0 0h7v13l-2 1h-68l-1-1v-12z" fill="#000000"/>
        <path transform="translate(244,487)" d="m0 0h3l1 5 1 38-5-1-7-8-5-1-12-10-7-8-4-4 1-2 12 11 2 1 2-6 7-8z" fill="#000000"/>
        <path transform="translate(496,486)" d="m0 0 10 5 11 10 2 6h2v2l-3 3h2l-2 4-10 2-6 4-3 7-6 1 2-6z" fill="#000000"/>
        <path transform="translate(438,499)" d="m0 0h10l6 4 3 7-1 7-4 5-6 4-9-1-6-5-2-5v-7l3-5z" fill="#000000"/>
        <path transform="translate(396,489)" d="m0 0h4v72h-8v-63l2-3z" fill="#287B3F"/>
        <path transform="translate(419,164)" d="m0 0h3l-1 4-7 10-6 9-7 12-8 14-7 15-6 16-5 12-2 4-4 2 1-5 8-24 12-25 6-10 8-14 6-8 6-7z" fill="#318043"/>
      </svg>